<?xml version="1.0" encoding="utf-8"?>
<!-- Generator: Adobe Illustrator 23.0.1, SVG Export Plug-In . SVG Version: 6.00 Build 0)  -->
<svg version="1.1" id="Layer_1" xmlns="http://www.w3.org/2000/svg" xmlns:xlink="http://www.w3.org/1999/xlink" x="0px" y="0px"
	 viewBox="0 0 516 609" style="enable-background:new 0 0 516 609;" xml:space="preserve">
<style type="text/css">
	.st0{fill:#00FFBC;}
	.st1{fill:#FFFFFF;}
</style>
<title>qmark</title>
<g>
	<g>
		<g id="Layer_1-2">
			<image style="overflow:visible;opacity:0.2;enable-background:new    ;" width="516" height="609" xlink:href="5EF419AF.png" >
			</image>
			<path class="st0" d="M258,579L97.2,418.2c-88.8-88.8-88.8-232.8,0-321.6l0,0C186,7.8,330,7.8,418.8,96.6l0,0
				c88.8,88.8,88.8,232.8,0,321.6L258,579z"/>
			<path class="st1" d="M212.9,319.2V315c0-44.9,66.5-63.5,66.5-96.5c0-14.4-14-25-30.1-25c-7.6,0-15.2,2.5-22,5.9
				c-13.1,6.4-26.3,6.4-34.3-5.5l-10.2-15.2c-8.5-12.3-8.9-22.9,3.8-30.9c20.9-13.7,45.3-20.9,70.3-20.8c47.4,0,98.6,28.4,98.6,83
				c0,64.4-63.9,79.2-72,112.2l-1.3,5.1c-3,11.4-8.9,15.2-22,15.2h-24.1C221,342.5,212.9,334.5,212.9,319.2z M214.6,395.9
				c0-15.2,8-23.3,23.3-23.3h20.3c15.2,0,23.3,8,23.3,23.3v16.9c0,15.2-8,23.3-23.3,23.3h-20.3c-15.2,0-23.3-8-23.3-23.3V395.9z"/>
		</g>
	</g>
</g>
</svg>
